<?xml version="1.0" encoding="utf-8"?>
<!-- Generator: Adobe Illustrator 22.1.0, SVG Export Plug-In . SVG Version: 6.00 Build 0)  -->
<svg version="1.1" id="Capa_1" xmlns="http://www.w3.org/2000/svg" xmlns:xlink="http://www.w3.org/1999/xlink" x="0px" y="0px"
	 viewBox="0 0 100 97.5" style="enable-background:new 0 0 100 97.5;" xml:space="preserve">
<style type="text/css">
	.st0{fill:#FFFFFF;}
</style>
<g>
	<path class="st0" d="M97.2,51.1c-2,9.4-7,15-15,16.6c0,0-3.2,0.7-4.2,0.8c-1,0.1-6.8,0.2-6.8,0.2c0,0,0,0,0,0c0,0,0,0,0,0h-9.8
		l1.5-2.1l31.4-45.4l5.4-7.9v-0.5c-0.1-0.1-0.2-0.2-0.3-0.3C97.6,10.8,95.4,9.2,93,8l0,0c-0.7-0.4-2.2-1-2.2-1
		c-4.5-1.9-9.9-2.8-16.1-2.9H63.9c-1,0-2-0.5-2.6-1.4L59.5,0H46.6l-1.8,2.7c-0.6,0.9-1.6,1.4-2.6,1.4h-6.4v3h10.9
		c1,0,1.9,0.1,2.6,0.4c1.8,0.7,2.6,2.2,2.6,4.5v7.6C44.4,20,38,24.3,34.6,30.6L19.2,7.1l-2-3.1h-1.8c-0.7,0-1.3-0.3-1.7-0.8
		l-0.5-1.1c-0.5-1-1.4-1.6-2.5-1.6l-3.6,0C6,0.6,5,1.2,4.6,2.2l-0.4,1c-0.4,0.5-1,0.9-1.7,0.9H0v3v0c0.1,0,0.4,0,0.9,0
		c2.1,0.1,3.6,0.2,4.5,0.5c1,0.3,1.7,0.8,2,1.5c0.3,0.8,0.5,2,0.5,3.8v50.9c0,1.8-0.4,3.2-1.2,4c-0.8,0.9-2,1.3-3.6,1.3h-3v0.1v3H21
		V69h-0.7H17c-1.8,0-3.2-0.4-3.9-1.2c-0.8-0.8-1.2-2.2-1.2-4.1V14.1h0.2l20.4,30.5c1.1,5.8,4.5,10.7,9.2,13.8l6.9,10.3l2.2,3.3v0h0
		h5h16.4c3.6,0,7-0.3,10.1-0.9l0,0c0.5-0.1,1.1-0.2,1.6-0.3c3.4-0.8,6.5-2,9.3-3.5c-0.1,0-0.3,0.1-0.4,0.1c0.6-0.2,1.1-0.3,1.5-0.3
		c1.2-0.1,2.1,0.4,2.5,1.3l0.4,1.1l2.8-0.1L100,51L97.2,51.1z M91.2,17.2c0,2-1.6,3.6-3.6,3.6S84,19.1,84,17.2s1.6-3.6,3.6-3.6
		S91.2,15.2,91.2,17.2z M60,7l12.3,0c5.9,0,10.7,1.7,14.4,4.3c-2.8,0.5-5,2.9-5,5.8c0,1.7,0.7,3.3,1.9,4.4l-9.7,14.1
		c-2.1-8.5-9.3-15-18.1-16v-7.7C55.8,8.8,57.2,7.2,60,7z M53.3,23.3c9.6,0,17.4,7.8,17.4,17.4s-7.8,17.4-17.4,17.4
		s-17.4-7.8-17.4-17.4S43.7,23.3,53.3,23.3z"/>
	<g>
		<path class="st0" d="M15.8,82.2c-1.6-1.4-3.9-2.1-7-2.1H0V81c0.7,0,1.1,0,1.4,0.1c0.3,0.1,0.5,0.2,0.5,0.4c0.1,0.2,0.1,0.5,0.1,1
			v12.6c0,0.5,0,0.8-0.1,1c-0.1,0.2-0.2,0.3-0.5,0.4c-0.3,0.1-0.8,0.1-1.5,0.1v0.9h8c3.4,0,5.9-0.7,7.6-2.1c1.7-1.4,2.6-3.7,2.6-6.8
			C18.2,85.7,17.4,83.6,15.8,82.2z M12.1,94.6c-0.9,1.3-2.2,1.9-4.1,1.9c-0.4,0-0.7,0-0.9-0.1C7,96.3,6.8,96.2,6.7,96
			c-0.1-0.2-0.1-0.6-0.1-1V82.1c0-0.5,0.1-0.7,0.3-0.8c0.2-0.1,0.7-0.2,1.3-0.2c1.7,0,3,0.6,3.9,1.9c0.9,1.3,1.3,3.1,1.3,5.6
			C13.4,91.3,13,93.3,12.1,94.6z"/>
		<path class="st0" d="M82.8,82.2c-1.6-1.4-3.9-2.1-7-2.1h-7.5H67h-3.8V81h1.1c0.6,0,0.8,0.2,0.8,0.7c0,0.2,0,0.4-0.1,0.6l-3.7,10.9
			h-0.1l-3.9-10.8c-0.1-0.3-0.1-0.5-0.1-0.6c0-0.5,0.3-0.7,0.9-0.7h1.1v-0.9h-8.1h-0.5h-4.4V81h0.7c0.9,0,1.3,0.4,1.3,1.3v10.2h-0.1
			l-7.9-12.3h-6.2V81c0.6,0,1,0.1,1.2,0.1c0.3,0.1,0.4,0.2,0.5,0.4c0.1,0.2,0.1,0.5,0.1,1v12.7c0,0.5-0.1,0.8-0.3,1
			c-0.2,0.2-0.5,0.3-0.9,0.3h-0.3c-0.5,0-0.9,0-1.1-0.1c-0.2-0.1-0.4-0.2-0.5-0.3c-0.1-0.2-0.3-0.5-0.4-0.9L27,80.1h-2.7l-6,15
			c-0.2,0.4-0.4,0.8-0.5,1c-0.2,0.2-0.4,0.3-0.7,0.4c-0.3,0.1-0.7,0.1-1.2,0.1v0.9h5.5v-0.9h-1c-0.5,0-0.8-0.2-0.8-0.5
			c0-0.1,0-0.3,0.1-0.5l1.5-4.1h5.4l1.5,4c0.1,0.2,0.1,0.4,0.1,0.6c0,0.4-0.2,0.6-0.7,0.6h-1.3v0.9h8.1h0.3h4.6v-0.9h-0.7
			c-0.5,0-0.9-0.1-1-0.3c-0.2-0.2-0.3-0.6-0.3-1.1V83.6h0l9.2,14.1h3V82.3c0-0.8,0.4-1.3,1.2-1.3h0c0.6,0,1,0.1,1.3,0.3
			c0.3,0.2,0.5,0.5,0.7,1.1l5.5,15.2h2.7l5.4-14.7c0.2-0.6,0.5-1.1,0.8-1.4c0.2-0.2,0.5-0.3,0.8-0.3c0.2,0,0.4,0,0.5,0.1
			c0.3,0.1,0.5,0.2,0.5,0.4c0.1,0.2,0.1,0.5,0.1,1v12.6c0,0.5,0,0.8-0.1,1c-0.1,0.2-0.2,0.3-0.5,0.4c-0.3,0.1-0.8,0.1-1.5,0.1v0.9h8
			c3.4,0,5.9-0.7,7.6-2.1c1.7-1.4,2.6-3.7,2.6-6.8C85.2,85.7,84.4,83.6,82.8,82.2z M21.6,90.5l2.3-6.2h0.1l2.3,6.2H21.6z M79.2,94.6
			c-0.9,1.3-2.2,1.9-4.1,1.9c-0.4,0-0.7,0-0.9-0.1c-0.2-0.1-0.4-0.2-0.4-0.4c-0.1-0.2-0.1-0.6-0.1-1V82.1c0-0.5,0.1-0.7,0.3-0.8
			c0.2-0.1,0.7-0.2,1.3-0.2c1.7,0,3,0.6,3.9,1.9c0.9,1.3,1.3,3.1,1.3,5.6C80.5,91.3,80,93.3,79.2,94.6z"/>
		<path class="st0" d="M98.9,92.6c-0.4,1.2-0.7,2.1-1.2,2.7c-0.4,0.6-1,0.9-1.6,1.1c-0.6,0.2-1.6,0.2-2.8,0.3l-3.1,0L99.4,81l0-0.9
			H85.9v4.6H87c0.1-0.9,0.3-1.7,0.6-2.2c0.3-0.5,0.7-0.9,1.3-1.2c0.6-0.3,1.4-0.4,2.4-0.4h3l-9.1,15.6v0.9h14.5l0.3-4.9H98.9z"/>
	</g>
</g>
</svg>
